<svg width="87" height="27" viewBox="0 0 87 27" fill="none" xmlns="http://www.w3.org/2000/svg">
<path d="M12.536 26.932C10.16 26.932 8.084 26.392 6.308 25.312C4.532 24.232 3.152 22.72 2.168 20.776C1.184 18.832 0.692 16.564 0.692 13.972C0.692 11.404 1.184 9.136 2.168 7.168C3.176 5.2 4.604 3.664 6.452 2.56C8.324 1.432 10.532 0.868 13.076 0.868C15.932 0.868 18.32 1.564 20.24 2.956C22.16 4.324 23.396 6.232 23.948 8.68H19.844C19.484 7.288 18.728 6.196 17.576 5.404C16.424 4.588 14.912 4.18 13.04 4.18C11.264 4.18 9.716 4.576 8.396 5.368C7.1 6.16 6.104 7.288 5.408 8.752C4.712 10.216 4.364 11.956 4.364 13.972C4.364 16.012 4.712 17.764 5.408 19.228C6.104 20.692 7.088 21.808 8.36 22.576C9.632 23.344 11.096 23.728 12.752 23.728C15.296 23.728 17.204 22.996 18.476 21.532C19.772 20.068 20.528 18.112 20.744 15.664H13.796V12.892H24.38V26.5H21.104L20.78 22.648C20.204 23.584 19.532 24.376 18.764 25.024C18.02 25.648 17.144 26.128 16.136 26.464C15.128 26.776 13.928 26.932 12.536 26.932ZM33.5482 26.932C31.8202 26.932 30.2842 26.536 28.9402 25.744C27.5962 24.952 26.5402 23.848 25.7722 22.432C25.0282 21.016 24.6562 19.372 24.6562 17.5C24.6562 15.58 25.0282 13.912 25.7722 12.496C26.5402 11.056 27.5962 9.94 28.9402 9.148C30.2842 8.332 31.8442 7.924 33.6202 7.924C35.3962 7.924 36.9202 8.32 38.1922 9.112C39.4642 9.904 40.4482 10.96 41.1442 12.28C41.8402 13.576 42.1882 15.016 42.1882 16.6C42.1882 16.84 42.1762 17.104 42.1522 17.392C42.1522 17.656 42.1402 17.956 42.1162 18.292H27.2842V15.736H38.5882C38.5162 14.224 38.0122 13.048 37.0762 12.208C36.1402 11.344 34.9762 10.912 33.5842 10.912C32.6002 10.912 31.7002 11.14 30.8842 11.596C30.0682 12.028 29.4082 12.676 28.9042 13.54C28.4242 14.38 28.1842 15.448 28.1842 16.744V17.752C28.1842 19.096 28.4242 20.236 28.9042 21.172C29.4082 22.084 30.0682 22.78 30.8842 23.26C31.7002 23.716 32.5882 23.944 33.5482 23.944C34.7002 23.944 35.6482 23.692 36.3922 23.188C37.1362 22.684 37.6882 22 38.0482 21.136H41.6482C41.3362 22.24 40.8082 23.236 40.0642 24.124C39.3202 24.988 38.3962 25.672 37.2922 26.176C36.2122 26.68 34.9642 26.932 33.5482 26.932ZM42.5878 26.5V8.356H45.8278L46.0438 11.452C46.6198 10.372 47.4358 9.52 48.4918 8.896C49.5478 8.248 50.7598 7.924 52.1278 7.924C53.5678 7.924 54.8038 8.212 55.8358 8.788C56.8678 9.364 57.6718 10.24 58.2478 11.416C58.8238 12.568 59.1118 14.02 59.1118 15.772V26.5H55.5118V16.132C55.5118 14.452 55.1398 13.18 54.3958 12.316C53.6518 11.452 52.5718 11.02 51.1558 11.02C50.2198 11.02 49.3798 11.248 48.6358 11.704C47.8918 12.136 47.2918 12.784 46.8358 13.648C46.4038 14.512 46.1878 15.568 46.1878 16.816V26.5H42.5878ZM67.6048 26.5C66.4528 26.5 65.4568 26.32 64.6168 25.96C63.7768 25.6 63.1288 25 62.6728 24.16C62.2168 23.32 61.9888 22.18 61.9888 20.74V11.416H58.8568V8.356H61.9888L62.4208 3.82H65.5888V8.356H70.7368V11.416H65.5888V20.776C65.5888 21.808 65.8048 22.516 66.2368 22.9C66.6688 23.26 67.4128 23.44 68.4688 23.44H70.5568V26.5H67.6048ZM77.1186 26.932C75.6306 26.932 74.3946 26.68 73.4106 26.176C72.4266 25.672 71.6946 25 71.2146 24.16C70.7346 23.296 70.4946 22.372 70.4946 21.388C70.4946 20.188 70.8066 19.168 71.4306 18.328C72.0546 17.464 72.9426 16.804 74.0946 16.348C75.2466 15.892 76.6266 15.664 78.2346 15.664H82.9506C82.9506 14.608 82.7946 13.732 82.4826 13.036C82.1706 12.34 81.7026 11.824 81.0786 11.488C80.4786 11.128 79.7106 10.948 78.7746 10.948C77.6946 10.948 76.7706 11.212 76.0026 11.74C75.2346 12.244 74.7546 13 74.5626 14.008H70.9626C71.1066 12.736 71.5386 11.656 72.2586 10.768C73.0026 9.856 73.9506 9.16 75.1026 8.68C76.2546 8.176 77.4786 7.924 78.7746 7.924C80.4786 7.924 81.9066 8.224 83.0586 8.824C84.2106 9.424 85.0746 10.276 85.6506 11.38C86.2506 12.46 86.5506 13.756 86.5506 15.268V26.5H83.4186L83.1306 23.44C82.8666 23.92 82.5546 24.376 82.1946 24.808C81.8346 25.24 81.4026 25.612 80.8986 25.924C80.4186 26.236 79.8546 26.476 79.2066 26.644C78.5826 26.836 77.8866 26.932 77.1186 26.932ZM77.8026 24.016C78.5706 24.016 79.2666 23.86 79.8906 23.548C80.5146 23.236 81.0426 22.816 81.4746 22.288C81.9306 21.736 82.2666 21.124 82.4826 20.452C82.7226 19.756 82.8546 19.048 82.8786 18.328V18.22H78.5946C77.5626 18.22 76.7226 18.352 76.0746 18.616C75.4506 18.856 74.9946 19.192 74.7066 19.624C74.4186 20.056 74.2746 20.56 74.2746 21.136C74.2746 21.736 74.4066 22.252 74.6706 22.684C74.9586 23.092 75.3666 23.416 75.8946 23.656C76.4226 23.896 77.0586 24.016 77.8026 24.016Z" fill="#648A00"/>
</svg>
