<svg xmlns="http://www.w3.org/2000/svg" width="20" height="20" viewBox="0 0 20 20" fill="none">
  <mask id="mask0_500_4358" style="mask-type:alpha" maskUnits="userSpaceOnUse" x="0" y="0" width="20" height="20">
    <rect width="20" height="20" fill="#D9D9D9"/>
  </mask>
  <g mask="url(#mask0_500_4358)">
    <path d="M4.5 7.5H15.5V5.5H4.5V7.5ZM4.5 18C4.0875 18 3.73437 17.8531 3.44062 17.5594C3.14687 17.2656 3 16.9125 3 16.5V5.5C3 5.09722 3.14931 4.74653 3.44792 4.44792C3.74653 4.14931 4.09722 4 4.5 4H6V2H7.5V4H12.5V2H14V4H15.5C15.9028 4 16.2535 4.14931 16.5521 4.44792C16.8507 4.74653 17 5.09722 17 5.5V9.875C16.7639 9.77778 16.5206 9.70139 16.2702 9.64583C16.0197 9.59028 15.7629 9.54861 15.5 9.52083V9H4.5V16.5H9.70833C9.77778 16.7778 9.87153 17.0382 9.98958 17.2812C10.1076 17.5243 10.2431 17.7639 10.3958 18H4.5ZM14.9952 19C13.8873 19 12.9444 18.6095 12.1667 17.8285C11.3889 17.0477 11 16.1033 11 14.9952C11 13.8873 11.3905 12.9444 12.1715 12.1667C12.9523 11.3889 13.8967 11 15.0048 11C16.1127 11 17.0556 11.3905 17.8333 12.1715C18.6111 12.9523 19 13.8967 19 15.0048C19 16.1127 18.6095 17.0556 17.8285 17.8333C17.0477 18.6111 16.1033 19 14.9952 19ZM16.1458 16.8542L16.8542 16.1458L15.5 14.7917V13H14.5V15.2083L16.1458 16.8542Z" fill="black"/>
  </g>
</svg>