<svg width="25" height="25" viewBox="0 0 25 25" fill="none" xmlns="http://www.w3.org/2000/svg">
<mask id="mask0_530_3094" style="mask-type:alpha" maskUnits="userSpaceOnUse" x="0" y="0" width="25" height="25">
<rect x="0.848145" y="0.756104" width="24" height="24" fill="#D9D9D9"/>
</mask>
<g mask="url(#mask0_530_3094)">
<path d="M7.84814 21.7561C7.29814 21.7561 6.82731 21.5603 6.43564 21.1686C6.04398 20.7769 5.84814 20.3061 5.84814 19.7561V6.7561H4.84814V4.7561H9.84814V3.7561H15.8481V4.7561H20.8481V6.7561H19.8481V19.7561C19.8481 20.3061 19.6523 20.7769 19.2606 21.1686C18.869 21.5603 18.3981 21.7561 17.8481 21.7561H7.84814ZM17.8481 6.7561H7.84814V19.7561H17.8481V6.7561ZM9.84814 17.7561H11.8481V8.7561H9.84814V17.7561ZM13.8481 17.7561H15.8481V8.7561H13.8481V17.7561Z" fill="#F40000"/>
</g>
</svg>
