<svg xmlns="http://www.w3.org/2000/svg" width="34" height="34" viewBox="0 0 34 34" fill="none">
  <path d="M13.2221 33.3333L12.4442 28.0554C11.972 27.8796 11.4882 27.6482 10.9929 27.3613C10.4976 27.074 10.0508 26.7731 9.65251 26.4583L4.72209 28.6529L0.61084 21.4583L5.04167 18.1804C4.99528 17.949 4.96751 17.6968 4.95834 17.4238C4.9489 17.1504 4.94417 16.8981 4.94417 16.6667C4.94417 16.4353 4.9489 16.1829 4.95834 15.9096C4.96751 15.6365 4.99528 15.3843 5.04167 15.1529L0.61084 11.875L4.72209 4.68042L9.65251 6.875C10.0508 6.56028 10.5 6.25931 11 5.97208C11.5 5.68514 11.9814 5.46292 12.4442 5.30542L13.2221 0H21.3888L22.1667 5.27792C22.6389 5.45375 23.1272 5.68056 23.6317 5.95833C24.1364 6.23611 24.5786 6.54167 24.9583 6.875L29.8888 4.68042L34 11.875L29.5692 15.0971C29.6156 15.3471 29.6433 15.6088 29.6525 15.8821C29.662 16.1551 29.6667 16.4167 29.6667 16.6667C29.6667 16.9167 29.662 17.1736 29.6525 17.4375C29.6433 17.7014 29.611 17.9583 29.5554 18.2083L33.9858 21.4583L29.875 28.6529L24.9583 26.4583C24.56 26.7731 24.1156 27.0786 23.625 27.375C23.1342 27.6714 22.6481 27.8982 22.1667 28.0554L21.3888 33.3333H13.2221ZM15.5275 30.5554H19.0692L19.6525 25.9721C20.5508 25.7499 21.3958 25.4096 22.1875 24.9513C22.9792 24.4929 23.699 23.9397 24.3471 23.2917L28.6667 25.1388L30.3192 22.1946L26.5138 19.375C26.634 18.9306 26.7267 18.4838 26.7917 18.0346C26.8564 17.5857 26.8888 17.1297 26.8888 16.6667C26.8888 16.2036 26.861 15.7476 26.8054 15.2988C26.7499 14.8496 26.6526 14.4028 26.5138 13.9583L30.3192 11.1388L28.6667 8.19458L24.3471 10.0554C23.7174 9.36097 23.0114 8.78 22.2292 8.3125C21.4467 7.845 20.5878 7.52792 19.6525 7.36125L19.0833 2.77792H15.5417L14.9583 7.36125C14.0417 7.56486 13.1875 7.89583 12.3958 8.35417C11.6042 8.8125 10.8935 9.375 10.2638 10.0417L5.94417 8.19458L4.29167 11.1388L8.09709 13.9446C7.97681 14.3982 7.88417 14.8472 7.81917 15.2917C7.75445 15.7361 7.72209 16.1944 7.72209 16.6667C7.72209 17.1297 7.75445 17.5835 7.81917 18.0279C7.88417 18.4724 7.97681 18.9214 8.09709 19.375L4.29167 22.1946L5.94417 25.1388L10.2638 23.2779C10.9118 23.9351 11.6317 24.4929 12.4233 24.9513C13.215 25.4096 14.06 25.7499 14.9583 25.9721L15.5275 30.5554ZM17.3333 22.2221C18.8703 22.2221 20.1804 21.6804 21.2638 20.5971C22.3471 19.5138 22.8888 18.2036 22.8888 16.6667C22.8888 15.1297 22.3471 13.8196 21.2638 12.7363C20.1804 11.6529 18.8703 11.1113 17.3333 11.1113C15.787 11.1113 14.4745 11.6529 13.3958 12.7363C12.317 13.8196 11.7775 15.1297 11.7775 16.6667C11.7775 18.2036 12.317 19.5138 13.3958 20.5971C14.4745 21.6804 15.787 22.2221 17.3333 22.2221Z" fill="#000000" fill-opacity="1"/>
</svg>